<?xml version="1.0" standalone="no"?><!DOCTYPE svg PUBLIC "-//W3C//DTD SVG 1.1//EN" "http://www.w3.org/Graphics/SVG/1.1/DTD/svg11.dtd"><svg t="1646198853353" class="icon" viewBox="0 0 1024 1024" version="1.1" xmlns="http://www.w3.org/2000/svg" p-id="2115" xmlns:xlink="http://www.w3.org/1999/xlink" width="200" height="200"><defs><style type="text/css"></style></defs><path d="M111.304348 512c0-221.295304 179.344696-400.695652 400.695652-400.695652 221.295304 0 400.695652 179.344696 400.695652 400.695652 0 221.295304-179.344696 400.695652-400.695652 400.695652-221.295304 0-400.695652-179.344696-400.695652-400.695652z" fill="#0B77E3" fill-opacity=".2" p-id="2116"></path><path d="M862.519652 459.085913a163.149913 163.149913 0 0 1 42.985739 76.577391H768.801391c3.717565 7.713391 5.87687 16.339478 5.87687 25.466435a58.690783 58.690783 0 1 1-117.370435 0c0-9.126957 2.137043-17.753043 5.865739-25.466435H520.45913v-104.414608a58.668522 58.668522 0 0 0 80.695653-54.372174 58.679652 58.679652 0 0 0-80.695653-54.383305v-108.889043a238.525217 238.525217 0 0 1 17.096348-0.667826 234.852174 234.852174 0 0 1 91.314087 18.331826 233.405217 233.405217 0 0 1 74.162087 50.009043 233.405217 233.405217 0 0 1 49.997913 74.150957 231.991652 231.991652 0 0 1 15.916522 57.332869 162.916174 162.916174 0 0 1 93.573565 46.32487z m-365.712695 231.513044a58.434783 58.434783 0 0 0 23.641043-4.975305v51.589565H234.206609l0.089043-0.467478c-73.182609-4.797217-131.08313-65.491478-131.08313-139.876174 0-22.227478 5.253565-43.186087 14.447304-61.874087h171.130435a58.690783 58.690783 0 1 1 110.681043-27.169391 58.323478 58.323478 0 0 1-6.711652 27.169391h127.677218v43.25287a58.37913 58.37913 0 0 0-23.629913-5.008696 58.679652 58.679652 0 1 0 0 117.370435z" fill="#A6D2FF" p-id="2117"></path><path d="M520.592696 534.984348H663.151304a58.501565 58.501565 0 0 0-5.865739 25.466435 58.690783 58.690783 0 0 0 117.370435 0c0-9.126957-2.148174-17.753043-5.87687-25.466435h136.715131c3.049739 12.510609 4.864 25.488696 4.852869 38.889739a162.949565 162.949565 0 0 1-47.838608 115.478261 162.838261 162.838261 0 0 1-115.44487 47.849739H520.43687v-51.600696a58.679652 58.679652 0 1 1 0-107.364174v-42.674087H392.904348a58.690783 58.690783 0 1 0-110.669913-27.169391c0 9.794783 2.437565 19.033043 6.700522 27.158261H117.804522c18.832696-38.244174 54.494609-66.704696 97.391304-75.553391a80.038957 80.038957 0 0 1-8.058435-34.893913 80.361739 80.361739 0 0 1 80.361739-80.361739 79.916522 79.916522 0 0 1 35.728696 8.45913A233.594435 233.594435 0 0 1 446.352696 231.17913a234.24 234.24 0 0 1 74.24-17.664v108.889044a58.690783 58.690783 0 1 1 22.016 113.051826c-7.791304 0-15.215304-1.536-22.016-4.296348v103.846957z" fill="#FFFFFF" p-id="2118"></path><path d="M916.301913 530.198261c3.405913 13.913043 5.186783 27.692522 5.175652 41.427478a173.412174 173.412174 0 0 1-51.088695 123.080348c-32.389565 32.389565-77.83513 51.010783-124.64974 51.010783L523.130435 745.73913s-288.144696 0.489739-289.391305 0c-77.757217-6.822957-141.657043-72.592696-141.657043-151.162434 0-23.340522 5.38713-45.968696 15.593739-66.637913a11.097043 11.097043 0 0 1 1.714087-2.526609 151.663304 151.663304 0 0 1 90.802087-75.085913 90.12313 90.12313 0 0 1-4.185043-27.147131c0-50.42087 40.96-91.302957 91.492173-91.302956a90.713043 90.713043 0 0 1 30.130087 5.153391 243.812174 243.812174 0 0 1 46.703305-65.335652 244.569043 244.569043 0 0 1 77.690435-52.268522 245.804522 245.804522 0 0 1 77.768347-18.476521A314.924522 314.924522 0 0 1 537.555478 200.347826c33.202087 0 65.847652 6.600348 95.654957 19.177739a244.557913 244.557913 0 0 1 77.690435 52.279652 243.97913 243.97913 0 0 1 52.390956 77.523479 241.92 241.92 0 0 1 15.36 51.823304 173.746087 173.746087 0 0 1 137.037913 127.22087 11.119304 11.119304 0 0 1 0.612174 1.825391z m-243.110956 8.136348a47.037217 47.037217 0 0 0-4.752696 20.591304c0.912696 26.445913 21.849043 46.781217 47.526956 46.781217a47.504696 47.504696 0 0 0 47.560348-47.460173 48.172522 48.172522 0 0 0-4.752695-19.923479 11.041391 11.041391 0 0 1-1.113044-4.841739 11.130435 11.130435 0 0 1 11.130435-11.753739h121.6a151.095652 151.095652 0 0 0-35.739826-56.787478 151.897043 151.897043 0 0 0-87.184696-43.074783 11.119304 11.119304 0 0 1-9.538782-9.427478 220.115478 220.115478 0 0 0-15.137392-54.461218 221.785043 221.785043 0 0 0-47.638261-70.466782 222.297043 222.297043 0 0 0-70.611478-47.526957 224.256 224.256 0 0 0-92.827826-17.330087v83.489392c3.584-0.556522 7.223652-0.857043 10.896696-0.857044 38.544696 0 69.810087 31.198609 69.810087 69.676522 0 22.316522-10.518261 42.184348-26.88 54.928696a69.62087 69.62087 0 0 1-53.815653 13.990956v77.846261H663.151304a11.130435 11.130435 0 0 1 11.152696 11.130435 10.907826 10.907826 0 0 1-1.113043 5.476174zM509.306435 698.10087a69.843478 69.843478 0 0 1-12.499478 1.113043c-37.654261 0-68.34087-29.740522-69.765566-66.960696a71.501913 71.501913 0 0 1 0.044522-6.333217 69.754435 69.754435 0 0 1 82.220522-64.901565V543.944348H392.759652a11.108174 11.108174 0 0 1-9.850435-16.272696 46.970435 46.970435 0 0 0 5.420522-21.949217 47.504696 47.504696 0 0 0-47.549217-47.460174 47.504696 47.504696 0 0 0-47.560348 47.460174c0 7.746783 1.881043 15.215304 5.420522 21.949217a11.108174 11.108174 0 0 1-9.850435 16.272696H124.772174a127.710609 127.710609 0 0 0-10.440348 50.632348C114.342957 662.561391 166.010435 719.048348 233.73913 723.478261c0.868174 0.055652 275.567304 0.044522 275.567305 0.044522V698.10087z m0.155826-176.37287v-92.516174a11.130435 11.130435 0 0 1 15.304348-10.295652 47.493565 47.493565 0 0 0 65.391304-43.965217 47.504696 47.504696 0 0 0-65.391304-43.965218 11.130435 11.130435 0 0 1-15.304348-10.295652V224.278261a222.386087 222.386087 0 0 0-58.779826 15.616 221.974261 221.974261 0 0 0-117.248 115.97913 11.130435 11.130435 0 0 1-15.181913 5.498435 68.797217 68.797217 0 0 0-30.764522-7.279304c-38.221913 0-69.220174 30.942609-69.220174 69.086608 0 10.440348 2.393043 20.591304 6.945391 29.985392a11.108174 11.108174 0 0 1-7.780174 15.705043 129.135304 129.135304 0 0 0-79.872 52.869565h135.268174a69.320348 69.320348 0 0 1-1.869913-16.016695c0-38.477913 31.254261-69.676522 69.821218-69.676522a69.821217 69.821217 0 0 1 67.617391 52.279652 69.64313 69.64313 0 0 1 0.601044 33.402435h100.463304z m387.060869 22.205217H784.283826c0.990609 4.674783 1.502609 9.46087 1.502609 14.31374 0 38.477913-31.265391 69.676522-69.821218 69.676521-38.544696 0-69.810087-31.198609-69.810087-69.676521 0-4.85287 0.512-9.638957 1.502609-14.31374h-116.090435v32.055653a11.130435 11.130435 0 0 1-15.616 10.162087 47.504696 47.504696 0 0 0-66.693565 43.408695 47.493565 47.493565 0 0 0 66.693565 43.408696 11.130435 11.130435 0 0 1 15.616 10.162087v40.381217H745.73913c40.848696 0 80.64-16.250435 108.900174-44.510609a151.240348 151.240348 0 0 0 44.577392-107.375304c0-9.149217-0.901565-18.365217-2.693566-27.692522z" fill="#005CB9" p-id="2119"></path><path d="M756.446609 745.73913H623.727304a22.149565 22.149565 0 0 1-2.971826-11.130434c0-11.208348-6.043826-22.060522-45.657043-79.693913-7.312696-10.629565-12.666435-19.856696-15.949913-27.336348A142.024348 142.024348 0 0 1 545.391304 566.450087c0-38.600348 15.471304-74.818783 42.462609-101.542957A144.896 144.896 0 0 1 690.086957 422.956522c79.86087 0 144.695652 64.189217 144.695652 143.493565 0 21.392696-4.741565 42.162087-13.478957 60.538435-3.561739 8.069565-8.904348 17.296696-16.228174 27.937391-39.613217 57.622261-45.657043 68.474435-45.657043 79.682783 0 4.051478-1.079652 7.858087-2.971826 11.130434z" fill="#000000" opacity=".1" p-id="2120"></path><path d="M667.826087 857.043478a33.391304 33.391304 0 0 1 33.502609-33.391304h22.038261a33.391304 33.391304 0 1 1 0 66.782609h-22.038261A33.413565 33.413565 0 0 1 667.826087 857.043478z" fill="#40A0FF" p-id="2121"></path><path d="M690.086957 857.043478c0 6.188522 5.030957 11.130435 11.241739 11.130435h22.038261a11.130435 11.130435 0 1 0 0-22.26087h-22.038261A11.130435 11.130435 0 0 0 690.086957 857.043478z m-22.26087 0a33.391304 33.391304 0 0 1 33.502609-33.391304h22.038261a33.391304 33.391304 0 1 1 0 66.782609h-22.038261A33.413565 33.413565 0 0 1 667.826087 857.043478z" fill="#005CB9" p-id="2122"></path><path d="M656.695652 768h111.304348v77.913043H656.695652z" fill="#40A0FF" p-id="2123"></path><path d="M667.937391 751.304348V834.782609h88.965566v-83.478261H667.937391z m-22.260869 0c0-12.29913 6.678261-22.26087 18.966261-22.26087h95.410087c12.288 0 19.110957 9.961739 19.110956 22.26087V834.782609a22.26087 22.26087 0 0 1-22.260869 22.260869H667.937391a22.26087 22.26087 0 0 1-22.260869-22.260869v-83.478261z" fill="#005CB9" p-id="2124"></path><path d="M589.913043 588.710957c0 18.44313 4.162783 35.917913 11.597914 51.567304 2.782609 6.310957 7.301565 14.269217 14.191304 24.286609 38.455652 55.952696 49.574957 72.726261 49.574956 92.304695h94.141218c0-19.578435 11.119304-36.352 49.574956-92.304695 6.90087-10.017391 11.408696-17.975652 14.191305-24.286609A119.774609 119.774609 0 0 0 834.782609 588.710957C834.782609 521.750261 779.965217 467.478261 712.347826 467.478261a122.657391 122.657391 0 0 0-86.572522 35.506087A120.264348 120.264348 0 0 0 589.913043 588.710957z" fill="#FFFFFF" p-id="2125"></path><path d="M745.73913 756.869565h13.690435c0-19.578435 11.108174-36.352 49.563826-92.304695 6.90087-10.017391 11.408696-17.975652 14.191305-24.286609A119.774609 119.774609 0 0 0 834.782609 588.710957C834.782609 521.750261 779.965217 467.478261 712.347826 467.478261a122.657391 122.657391 0 0 0-86.572522 35.506087A120.264348 120.264348 0 0 0 589.913043 588.710957c0 18.44313 4.162783 35.917913 11.597914 51.567304 2.782609 6.310957 7.301565 14.269217 14.191304 24.286609 38.455652 55.952696 49.574957 72.726261 49.574956 92.304695H678.956522V645.565217h-7.590957c-17.185391 0-31.365565-13.267478-31.365565-30.330434 0-17.074087 13.957565-30.886957 31.131826-30.886957 17.185391 0 31.142957 13.81287 31.142957 30.898087l-0.022261 8.013913h23.407304v-8.025043c0-17.074087 13.946435-30.886957 31.131826-30.886957 17.185391 0 31.131826 13.81287 31.131826 30.886957 0 17.062957-13.946435 30.330435-31.131826 30.330434H745.73913v111.304348z m-22.260869 0V645.565217h-22.26087v111.304348h22.26087zM567.652174 588.710957c0-38.600348 15.471304-74.818783 42.462609-101.542957A144.896 144.896 0 0 1 712.347826 445.217391c79.86087 0 144.695652 64.189217 144.695652 143.493566 0 21.392696-4.741565 42.162087-13.478956 60.538434-3.561739 8.069565-8.904348 17.296696-16.228174 27.937392C787.72313 734.797913 779.130435 745.650087 779.130435 756.869565c0 12.29913-7.41287 22.26087-19.70087 22.26087h-94.163478c-12.288 0-19.70087-9.961739-19.70087-22.26087 0-11.208348-8.592696-22.060522-48.205913-79.693913-7.312696-10.629565-12.666435-19.856696-15.949913-27.336348A142.024348 142.024348 0 0 1 567.652174 588.710957z m189.139478 34.548869a8.091826 8.091826 0 0 0 8.158609-8.025043 8.091826 8.091826 0 0 0-8.158609-8.013913 8.091826 8.091826 0 0 0-8.158609 8.013913v8.013913h8.158609z m-77.501217-8.025043a8.091826 8.091826 0 0 0-8.158609-8.013913 8.091826 8.091826 0 0 0-8.147478 8.013913c0 4.418783 3.639652 8.013913 8.147478 8.013913h8.169739v-8.013913zM678.956522 818.086957c0-3.072 2.381913-5.565217 5.620869-5.565218h11.019131c3.105391 0 5.62087 2.582261 5.620869 5.565218 0 3.072-2.381913 5.565217-5.620869 5.565217h-11.019131a5.654261 5.654261 0 0 1-5.620869-5.565217z m-22.26087-22.26087c0-3.072 2.393043-5.565217 5.453913-5.565217h33.613913a5.565217 5.565217 0 0 1 5.453913 5.565217c0 3.072-2.393043 5.565217-5.453913 5.565217h-33.613913a5.565217 5.565217 0 0 1-5.453913-5.565217z m55.652174 22.26087c0-3.072 2.393043-5.565217 5.542957-5.565218h44.56626c3.06087 0 5.542957 2.582261 5.542957 5.565218 0 3.072-2.393043 5.565217-5.542957 5.565217h-44.56626a5.609739 5.609739 0 0 1-5.542957-5.565217z m0-22.26087c0-3.072 2.404174-5.565217 5.509565-5.565217h22.372174c3.038609 0 5.509565 2.582261 5.509565 5.565217 0 3.072-2.404174 5.565217-5.509565 5.565217h-22.372174a5.598609 5.598609 0 0 1-5.509565-5.565217z" fill="#005CB9" p-id="2126"></path></svg>